<svg version="1.2" baseProfile="tiny" viewBox="0 0 55.92 29.0" xmlns:xlink="http://www.w3.org/1999/xlink" xmlns="http://www.w3.org/2000/svg">
<path style="fill:#ffffff;" d="M55.4452,0.1491C55.15,-0.0339,54.7809,-0.0499,54.4711,0.1061L40.466,7.1241C37.869,2.706,33.1801,0.0,28.0003,0.0C22.8059,0.0,18.1108,2.717,15.5212,7.152L1.4472,0.1061C1.1402,-0.049,0.7689,-0.0331,0.4748,0.1499C0.1801,0.332,0.0,0.6539,0.0,0.9999L0.0,28.0001C0.0,28.3469,0.1801,28.6679,0.4748,28.8509C0.6353,28.951,0.817,29.0,0.9998,29.0C1.1531,29.0,1.3069,28.9649,1.4472,28.8939L15.5508,21.8329C16.9611,24.213,19.0419,26.1679,21.499,27.3931C23.53,28.42,25.717,28.94,28.0003,28.94C30.2292,28.94,32.4548,28.4159,34.435,27.4259C36.9251,26.1899,39.021,24.2321,40.429,21.8631L54.4728,28.8939C54.6131,28.9649,54.7669,29.0,54.9201,29.0C55.103,29.0,55.2847,28.9501,55.4452,28.8509C55.7399,28.6691,55.92,28.3469,55.92,28.0001L55.92,0.9999C55.92,0.6539,55.7399,0.332,55.4452,0.1491M2.0003,26.381L2.0003,2.6199L14.6309,8.943C14.5823,9.061,14.5481,9.184,14.5017,9.3029C14.4313,9.4891,14.3647,9.675,14.3021,9.8629C14.197,10.177,14.103,10.4939,14.0191,10.815C13.9699,11.0009,13.9202,11.1859,13.8788,11.3741C13.8027,11.7221,13.7451,12.073,13.6942,12.425C13.6708,12.5889,13.6378,12.751,13.621,12.916C13.564,13.4331,13.5298,13.951,13.5298,14.471C13.5298,14.995,13.5651,15.517,13.6221,16.0379C13.6411,16.2081,13.6741,16.3751,13.6982,16.5451C13.749,16.8951,13.8061,17.2431,13.8833,17.5879C13.9258,17.7831,13.9778,17.9751,14.0292,18.1679C14.1131,18.486,14.2059,18.8001,14.311,19.111C14.3759,19.3041,14.4453,19.495,14.518,19.6849C14.5638,19.8061,14.599,19.93,14.6488,20.0489L2.0003,26.381M33.5431,25.636C31.8369,26.4889,29.92,26.9401,28.0003,26.9401C26.033,26.9401,24.149,26.4921,22.396,25.605C20.0222,24.4229,18.0538,22.4541,16.8532,20.061C15.987,18.3399,15.5301,16.4059,15.5301,14.4701C15.5301,13.9899,15.5581,13.5099,15.614,13.034C15.7253,12.0811,15.9461,11.1421,16.271,10.2419C16.4332,9.793,16.6222,9.3531,16.8342,8.9271L16.8342,8.9271C16.8342,8.9271,16.8353,8.9259,16.8353,8.9259C18.9569,4.6539,23.2342,2.0001,28.0003,2.0001C32.754,2.0001,37.028,4.6429,39.1557,8.8989C40.0152,10.607,40.4687,12.5341,40.4687,14.4701C40.4687,15.9381,40.2082,17.398,39.706,18.7621C39.6769,18.843,39.635,18.9179,39.6031,18.997C39.4572,19.3679,39.305,19.7371,39.1239,20.0909C37.9311,22.4741,35.9482,24.4421,33.5431,25.636M53.9197,26.381L41.3361,20.081C41.3858,19.9639,41.4199,19.8409,41.4669,19.7229C41.5418,19.5301,41.6117,19.3369,41.6789,19.14C41.7851,18.8291,41.879,18.5151,41.964,18.1969C42.016,18.0029,42.0681,17.8109,42.1122,17.614C42.1888,17.266,42.2481,16.9151,42.3001,16.561C42.3242,16.3911,42.3577,16.224,42.3762,16.0529C42.4349,15.528,42.4701,15.0,42.4701,14.4701C42.4701,13.9461,42.4349,13.4229,42.3779,12.903C42.36,12.7371,42.3281,12.575,42.3052,12.4111C42.2543,12.0559,42.1972,11.7029,42.1189,11.3529C42.077,11.1641,42.0261,10.978,41.9769,10.7909C41.8919,10.4681,41.7991,10.15,41.6923,9.8339C41.6291,9.646,41.5631,9.4601,41.4921,9.2759C41.4462,9.155,41.411,9.03,41.3612,8.9111L53.9197,2.6199L53.9197,26.381Z"/>
</svg>