<svg version="1.2" baseProfile="tiny" id="EdgeSVG_wAgxo" x="0px" y="0px" width="188.343px" height="144.104px" viewBox="0 0 188.343 144.104" xmlns:xlink="http://www.w3.org/1999/xlink" xmlns="http://www.w3.org/2000/svg">
  <g id="Lift_x5F_Table_x5F_1_x5F_Hydraulic_x5F_Overlay_x5F_Up">
    <polygon fill="#333333" points="144.067,53.643 143.093,54.097 120.395,5.534 116.116,7.527 138.815,56.091 140.954,55.094 &#xD;&#xA;&#x9;&#x9;&#x9;137.841,56.546 174.768,135.777 180.995,132.874 &#x9;&#x9;"/>
    <polygon fill="#CCCCCC" points="120.395,5.534 143.093,54.098 138.815,56.091 116.116,7.527 &#x9;&#x9;"/>
    <g>
      <linearGradient id="SVGID_9_" gradientUnits="userSpaceOnUse" x1="127.4443" y1="31.8203" x2="131.7652" y2="29.8054">
        <stop offset="0.0558" style="stop-color:#000000;stop-opacity:0.5"/>
        <stop offset="0.2338" style="stop-color:#000000;stop-opacity:0.2"/>
        <stop offset="0.2745" style="stop-color:#FFFFFF;stop-opacity:0.252"/>
        <stop offset="0.2896" style="stop-color:#000000;stop-opacity:0.2"/>
        <stop offset="0.4887" style="stop-color:#FFFFFF;stop-opacity:0.45"/>
        <stop offset="0.7014" style="stop-color:#000000;stop-opacity:0.2"/>
        <stop offset="0.7149" style="stop-color:#FFFFFF;stop-opacity:0.2347"/>
        <stop offset="0.7557" style="stop-color:#000000;stop-opacity:0.2"/>
        <stop offset="0.9487" style="stop-color:#000000;stop-opacity:0.5"/>
      </linearGradient>
      <polygon fill="url(#SVGID_9_)" points="120.395,5.534 143.093,54.098 138.815,56.091 116.116,7.527 &#x9;&#x9;&#x9;"/>
    </g>
    <g>
      <linearGradient id="SVGID_10_" gradientUnits="userSpaceOnUse" x1="156.2959" y1="96.166" x2="162.5385" y2="93.255">
        <stop offset="0" style="stop-color:#000000;stop-opacity:0.35"/>
        <stop offset="0.0363" style="stop-color:#1C1C1C;stop-opacity:0.3351"/>
        <stop offset="0.1329" style="stop-color:#606060;stop-opacity:0.2956"/>
        <stop offset="0.2244" style="stop-color:#999999;stop-opacity:0.2581"/>
        <stop offset="0.3083" style="stop-color:#C5C5C5;stop-opacity:0.2238"/>
        <stop offset="0.3829" style="stop-color:#E5E5E5;stop-opacity:0.1933"/>
        <stop offset="0.4456" style="stop-color:#F8F8F8;stop-opacity:0.1676"/>
        <stop offset="0.4887" style="stop-color:#FFFFFF;stop-opacity:0.15"/>
        <stop offset="0.5361" style="stop-color:#F9F9F9;stop-opacity:0.1685"/>
        <stop offset="0.6001" style="stop-color:#E8E8E8;stop-opacity:0.1936"/>
        <stop offset="0.6737" style="stop-color:#CBCBCB;stop-opacity:0.2224"/>
        <stop offset="0.7544" style="stop-color:#A4A4A4;stop-opacity:0.2539"/>
        <stop offset="0.8409" style="stop-color:#717171;stop-opacity:0.2877"/>
        <stop offset="0.9308" style="stop-color:#343434;stop-opacity:0.3229"/>
        <stop offset="1" style="stop-color:#000000;stop-opacity:0.35"/>
      </linearGradient>
      <polygon fill="url(#SVGID_10_)" points="144.067,53.643 180.995,132.874 174.768,135.777 137.841,56.546 &#x9;&#x9;&#x9;"/>
    </g>
  </g>
  <g id="Lift_x5F_Table_x5F_1_x5F_Left_x5F_Overlay_x5F_Up">
    <g>
      <path fill="#CCCCCC" d="M181.134,117.723c-0.283-1.644-1.479-3.952-2.659-5.132l-57.428-57.43&#xD;&#xA;&#x9;&#x9;&#x9;&#x9;c-1.179-1.179-3.107-3.108-4.287-4.288L89.547,23.659c-1.179-1.179-3.261-2.926-4.627-3.882L70.687,9.811&#xD;&#xA;&#x9;&#x9;&#x9;&#x9;c-1.366-0.956-3.448-0.774-4.627,0.404l-1.269,1.269c-1.178,1.18-1.906,3.486-1.617,5.129l2.678,15.19&#xD;&#xA;&#x9;&#x9;&#x9;&#x9;c0.29,1.642,1.491,3.949,2.67,5.128l57.286,57.287c1.179,1.178,3.108,3.107,4.288,4.286l27.238,27.24&#xD;&#xA;&#x9;&#x9;&#x9;&#x9;c1.179,1.178,3.263,2.926,4.628,3.883l14.232,9.966c1.367,0.957,3.449,0.774,4.628-0.405l1.271-1.271&#xD;&#xA;&#x9;&#x9;&#x9;&#x9;c1.179-1.179,1.911-3.488,1.629-5.132L181.134,117.723z"/>
    </g>
    <g>
      <linearGradient id="SVGID_11_" gradientUnits="userSpaceOnUse" x1="135.001" y1="64.2959" x2="111.8886" y2="85.1064">
        <stop offset="0.2956" style="stop-color:#FFFFFF;stop-opacity:0.15"/>
        <stop offset="0.4012" style="stop-color:#FFFFFF;stop-opacity:0.08"/>
        <stop offset="0.5189" style="stop-color:#000000;stop-opacity:0.15"/>
        <stop offset="0.6244" style="stop-color:#000000;stop-opacity:0.45"/>
      </linearGradient>
      <path fill="url(#SVGID_11_)" d="M183.725,132.785l-2.591-15.063c-0.285-1.643-1.481-3.953-2.659-5.133l-57.43-57.43&#xD;&#xA;&#x9;&#x9;&#x9;&#x9;c-1.179-1.181-3.107-3.108-4.281-4.285L89.545,23.66c-1.179-1.182-3.258-2.926-4.624-3.882L70.687,9.812&#xD;&#xA;&#x9;&#x9;&#x9;&#x9;c-1.366-0.957-3.449-0.772-4.626,0.402l-1.269,1.271c-1.177,1.176-1.907,3.484-1.621,5.127l2.681,15.187&#xD;&#xA;&#x9;&#x9;&#x9;&#x9;c0.291,1.647,1.49,3.951,2.668,5.132l57.291,57.288c1.174,1.177,3.104,3.104,4.282,4.285l27.244,27.24&#xD;&#xA;&#x9;&#x9;&#x9;&#x9;c1.174,1.178,3.26,2.926,4.625,3.883l14.234,9.967c1.365,0.956,3.448,0.771,4.626-0.402l1.271-1.277&#xD;&#xA;&#x9;&#x9;&#x9;&#x9;C183.272,136.739,184.005,134.425,183.725,132.785z M181.234,137.059l-1.27,1.273c-0.758,0.756-2.193,0.883-3.073,0.269&#xD;&#xA;&#x9;&#x9;&#x9;&#x9;l-14.233-9.968c-1.302-0.91-3.345-2.622-4.466-3.748L69.379,36.074c-0.994-0.999-2.09-3.092-2.331-4.482l-2.679-15.19&#xD;&#xA;&#x9;&#x9;&#x9;&#x9;c-0.222-1.258,0.375-3.156,1.282-4.061l1.265-1.269c0.76-0.757,2.195-0.883,3.074-0.269l14.234,9.967&#xD;&#xA;&#x9;&#x9;&#x9;&#x9;c1.296,0.908,3.344,2.623,4.466,3.75l88.929,88.928c0.995,1.002,2.077,3.091,2.317,4.48l2.591,15.063&#xD;&#xA;&#x9;&#x9;&#x9;&#x9;C182.746,134.255,182.142,136.155,181.234,137.059z"/>
    </g>
    <g>
      <linearGradient id="SVGID_12_" gradientUnits="userSpaceOnUse" x1="131.1582" y1="66.9863" x2="115.7249" y2="82.4197">
        <stop offset="0" style="stop-color:#000000;stop-opacity:0.05"/>
        <stop offset="1" style="stop-color:#000000;stop-opacity:0.25"/>
      </linearGradient>
      <path fill="url(#SVGID_12_)" d="M181.234,137.059l-1.27,1.273c-0.758,0.756-2.193,0.883-3.073,0.269l-14.233-9.968&#xD;&#xA;&#x9;&#x9;&#x9;&#x9;c-1.302-0.91-3.345-2.622-4.466-3.748L69.379,36.074c-0.994-0.999-2.09-3.092-2.331-4.482l-2.679-15.19&#xD;&#xA;&#x9;&#x9;&#x9;&#x9;c-0.222-1.258,0.375-3.156,1.282-4.061l1.265-1.269c0.76-0.757,2.195-0.883,3.074-0.269l14.234,9.967&#xD;&#xA;&#x9;&#x9;&#x9;&#x9;c1.296,0.908,3.344,2.623,4.466,3.75l88.929,88.928c0.995,1.002,2.077,3.091,2.317,4.48l2.591,15.063&#xD;&#xA;&#x9;&#x9;&#x9;&#x9;C182.746,134.255,182.142,136.155,181.234,137.059z"/>
    </g>
    <linearGradient id="SVGID_13_" gradientUnits="userSpaceOnUse" x1="68.8335" y1="13.127" x2="68.8335" y2="17.3838">
      <stop offset="0" style="stop-color:#FFFFFF;stop-opacity:0.35"/>
      <stop offset="0.1378" style="stop-color:#E2E2E2;stop-opacity:0.35"/>
      <stop offset="0.4372" style="stop-color:#989898;stop-opacity:0.35"/>
      <stop offset="0.8725" style="stop-color:#242424;stop-opacity:0.35"/>
      <stop offset="1" style="stop-color:#000000;stop-opacity:0.35"/>
    </linearGradient>
    <path fill="url(#SVGID_13_)" d="M67.613,13.513c-0.963,0.674-1.197,2-0.522,2.963c0.674,0.963,2,1.198,2.964,0.522&#xD;&#xA;&#x9;&#x9;&#x9;c0.963-0.674,1.197-1.999,0.522-2.963C69.902,13.071,68.577,12.838,67.613,13.513z M69.707,16.503&#xD;&#xA;&#x9;&#x9;&#x9;c-0.69,0.482-1.64,0.311-2.12-0.375c-0.483-0.69-0.317-1.636,0.374-2.119c0.685-0.48,1.636-0.316,2.12,0.374&#xD;&#xA;&#x9;&#x9;&#x9;C70.56,15.068,70.392,16.021,69.707,16.503z"/>
    <linearGradient id="SVGID_14_" gradientUnits="userSpaceOnUse" x1="68.832" y1="13.7334" x2="68.832" y2="16.7773">
      <stop offset="0" style="stop-color:#FFFFFF;stop-opacity:0.1"/>
      <stop offset="1" style="stop-color:#000000;stop-opacity:0.1"/>
    </linearGradient>
    <path fill="url(#SVGID_14_)" d="M70.08,14.383c0.479,0.686,0.312,1.639-0.374,2.12c-0.69,0.482-1.64,0.311-2.12-0.375&#xD;&#xA;&#x9;&#x9;&#x9;c-0.483-0.69-0.317-1.636,0.374-2.119C68.646,13.528,69.596,13.692,70.08,14.383z"/>
  </g>
  <g>
    <path fill="#CCCCCC" d="M180.835,10.216c-1.18-1.18-3.263-1.361-4.628-0.405l-14.232,9.968c-1.367,0.955-3.449,2.702-4.628,3.882&#xD;&#xA;&#x9;&#x9;&#x9;l-27.213,27.214c-1.179,1.179-3.108,3.108-4.287,4.287l-57.428,57.431c-1.179,1.179-2.375,3.487-2.657,5.131l-2.591,15.063&#xD;&#xA;&#x9;&#x9;&#x9;c-0.282,1.643,0.451,3.952,1.63,5.131l1.271,1.272c1.179,1.179,3.26,1.36,4.626,0.405l14.234-9.967&#xD;&#xA;&#x9;&#x9;&#x9;c1.366-0.957,3.448-2.704,4.626-3.883l27.239-27.24c1.18-1.179,3.108-3.107,4.287-4.286l57.286-57.286&#xD;&#xA;&#x9;&#x9;&#x9;c1.179-1.18,2.38-3.487,2.67-5.129l2.679-15.19c0.289-1.643-0.438-3.949-1.617-5.128L180.835,10.216z"/>
  </g>
  <g>
    <linearGradient id="SVGID_15_" gradientUnits="userSpaceOnUse" x1="111.8926" y1="64.2939" x2="135.007" y2="85.1063">
      <stop offset="0.2956" style="stop-color:#FFFFFF;stop-opacity:0.25"/>
      <stop offset="0.4012" style="stop-color:#FFFFFF;stop-opacity:0.1"/>
      <stop offset="0.5189" style="stop-color:#000000;stop-opacity:0.1"/>
      <stop offset="0.6244" style="stop-color:#000000;stop-opacity:0.35"/>
    </linearGradient>
    <path fill="url(#SVGID_15_)" d="M182.103,11.485l-1.269-1.271c-1.177-1.175-3.262-1.359-4.627-0.403l-14.232,9.968&#xD;&#xA;&#x9;&#x9;&#x9;c-1.367,0.955-3.451,2.704-4.625,3.882l-27.218,27.215c-1.175,1.176-3.108,3.107-4.282,4.285l-57.435,57.432&#xD;&#xA;&#x9;&#x9;&#x9;c-1.173,1.177-2.369,3.487-2.654,5.131l-2.591,15.063c-0.285,1.643,0.453,3.954,1.63,5.128l1.271,1.278&#xD;&#xA;&#x9;&#x9;&#x9;c1.177,1.173,3.26,1.357,4.626,0.402l14.234-9.967c1.366-0.957,3.451-2.705,4.624-3.883l27.245-27.24&#xD;&#xA;&#x9;&#x9;&#x9;c1.174-1.178,3.107-3.108,4.281-4.285l57.292-57.288c1.173-1.177,2.377-3.484,2.668-5.132l2.682-15.187&#xD;&#xA;&#x9;&#x9;&#x9;C184.009,14.97,183.279,12.66,182.103,11.485z M182.524,16.401l-2.679,15.19c-0.24,1.391-1.336,3.482-2.33,4.482l-88.813,88.811&#xD;&#xA;&#x9;&#x9;&#x9;c-1.122,1.126-3.165,2.838-4.466,3.748L70.002,138.6c-0.879,0.616-2.314,0.488-3.073-0.268l-1.27-1.272&#xD;&#xA;&#x9;&#x9;&#x9;c-0.907-0.904-1.512-2.805-1.294-4.068l2.59-15.063c0.241-1.39,1.324-3.479,2.319-4.48l88.929-88.929&#xD;&#xA;&#x9;&#x9;&#x9;c1.121-1.126,3.164-2.837,4.465-3.749l14.234-9.967c0.879-0.614,2.314-0.488,3.074,0.269l1.266,1.268&#xD;&#xA;&#x9;&#x9;&#x9;C182.15,13.245,182.746,15.144,182.524,16.401z"/>
  </g>
  <linearGradient id="SVGID_16_" gradientUnits="userSpaceOnUse" x1="115.7383" y1="66.9863" x2="131.1717" y2="82.4198">
    <stop offset="0" style="stop-color:#FFFFFF;stop-opacity:0.1"/>
    <stop offset="1" style="stop-color:#000000;stop-opacity:0.1"/>
  </linearGradient>
  <path fill="url(#SVGID_16_)" d="M181.243,12.34l-1.266-1.268c-0.76-0.757-2.195-0.883-3.074-0.269l-14.234,9.967&#xD;&#xA;&#x9;&#x9;c-1.301,0.912-3.344,2.623-4.465,3.749l-88.929,88.929c-0.995,1.001-2.078,3.091-2.319,4.48l-2.59,15.063&#xD;&#xA;&#x9;&#x9;c-0.218,1.264,0.387,3.164,1.294,4.068l1.27,1.272c0.759,0.756,2.194,0.884,3.073,0.268l14.234-9.967&#xD;&#xA;&#x9;&#x9;c1.301-0.91,3.344-2.622,4.466-3.748l88.813-88.811c0.994-1,2.09-3.092,2.33-4.482l2.679-15.19&#xD;&#xA;&#x9;&#x9;C182.746,15.144,182.15,13.245,181.243,12.34z M70.05,135.983c-0.963,0.674-2.289,0.44-2.964-0.523&#xD;&#xA;&#x9;&#x9;c-0.675-0.963-0.44-2.288,0.523-2.964c0.963-0.674,2.289-0.44,2.964,0.523C71.248,133.982,71.014,135.309,70.05,135.983z&#xD;&#xA;&#x9;&#x9; M179.297,16.907c-0.959,0.672-2.29,0.441-2.965-0.522c-0.674-0.964-0.436-2.293,0.523-2.964c0.963-0.675,2.294-0.444,2.969,0.52&#xD;&#xA;&#x9;&#x9;S180.26,16.233,179.297,16.907z"/>
  <linearGradient id="SVGID_17_" gradientUnits="userSpaceOnUse" x1="68.8296" y1="132.1113" x2="68.8296" y2="136.3682">
    <stop offset="0" style="stop-color:#FFFFFF;stop-opacity:0.35"/>
    <stop offset="0.1378" style="stop-color:#E2E2E2;stop-opacity:0.35"/>
    <stop offset="0.4372" style="stop-color:#989898;stop-opacity:0.35"/>
    <stop offset="0.8725" style="stop-color:#242424;stop-opacity:0.35"/>
    <stop offset="1" style="stop-color:#000000;stop-opacity:0.35"/>
  </linearGradient>
  <path fill="url(#SVGID_17_)" d="M67.609,132.496c-0.963,0.676-1.198,2.001-0.523,2.964c0.675,0.964,2,1.197,2.964,0.523&#xD;&#xA;&#x9;&#x9;c0.963-0.675,1.198-2.001,0.523-2.964C69.898,132.056,68.573,131.822,67.609,132.496z M69.702,135.486&#xD;&#xA;&#x9;&#x9;c-0.69,0.483-1.639,0.312-2.118-0.374c-0.48-0.685-0.317-1.635,0.373-2.119c0.686-0.479,1.64-0.312,2.12,0.374&#xD;&#xA;&#x9;&#x9;S70.388,135.007,69.702,135.486z"/>
  <linearGradient id="SVGID_18_" gradientUnits="userSpaceOnUse" x1="178.0781" y1="13.0342" x2="178.0781" y2="17.292">
    <stop offset="0" style="stop-color:#FFFFFF;stop-opacity:0.35"/>
    <stop offset="0.1378" style="stop-color:#E2E2E2;stop-opacity:0.35"/>
    <stop offset="0.4372" style="stop-color:#989898;stop-opacity:0.35"/>
    <stop offset="0.8725" style="stop-color:#242424;stop-opacity:0.35"/>
    <stop offset="1" style="stop-color:#000000;stop-opacity:0.35"/>
  </linearGradient>
  <path fill="url(#SVGID_18_)" d="M176.855,13.421c-0.959,0.671-1.197,2-0.523,2.964c0.675,0.964,2.006,1.194,2.965,0.522&#xD;&#xA;&#x9;&#x9;c0.963-0.674,1.202-2.003,0.527-2.967S177.818,12.746,176.855,13.421z M178.949,16.411c-0.686,0.479-1.64,0.312-2.12-0.374&#xD;&#xA;&#x9;&#x9;c-0.483-0.69-0.312-1.639,0.374-2.12c0.69-0.483,1.641-0.319,2.124,0.37C179.808,14.973,179.64,15.928,178.949,16.411z"/>
  <linearGradient id="SVGID_19_" gradientUnits="userSpaceOnUse" x1="68.8291" y1="132.7197" x2="68.8291" y2="135.7617">
    <stop offset="0" style="stop-color:#FFFFFF;stop-opacity:0.1"/>
    <stop offset="1" style="stop-color:#000000;stop-opacity:0.1"/>
  </linearGradient>
  <path fill="url(#SVGID_19_)" d="M70.077,133.367c0.479,0.686,0.311,1.64-0.375,2.119c-0.69,0.483-1.639,0.312-2.118-0.374&#xD;&#xA;&#x9;&#x9;c-0.48-0.685-0.317-1.635,0.373-2.119C68.643,132.514,69.597,132.682,70.077,133.367z"/>
  <linearGradient id="SVGID_20_" gradientUnits="userSpaceOnUse" x1="178.0771" y1="13.6396" x2="178.0771" y2="16.6846">
    <stop offset="0" style="stop-color:#FFFFFF;stop-opacity:0.1"/>
    <stop offset="1" style="stop-color:#000000;stop-opacity:0.1"/>
  </linearGradient>
  <path fill="url(#SVGID_20_)" d="M179.327,14.287c0.48,0.686,0.313,1.641-0.378,2.124c-0.686,0.479-1.64,0.312-2.12-0.374&#xD;&#xA;&#x9;&#x9;c-0.483-0.69-0.312-1.639,0.374-2.12C177.894,13.434,178.844,13.598,179.327,14.287z"/>
</svg>