<svg version="1.2" baseProfile="tiny" id="EdgeSVG_wAgxo" x="0px" y="0px" width="188.343px" height="144.104px" viewBox="0 0 188.343 144.104" xmlns:xlink="http://www.w3.org/1999/xlink" xmlns="http://www.w3.org/2000/svg">
  <g>
    <linearGradient id="SVGID_21_" gradientUnits="userSpaceOnUse" x1="68.8369" y1="130.9658" x2="68.8369" y2="135.3613">
      <stop offset="0" style="stop-color:#FFFFFF;stop-opacity:0.05"/>
      <stop offset="1" style="stop-color:#000000;stop-opacity:0.1"/>
    </linearGradient>
    <path fill="url(#SVGID_21_)" d="M72.487,134.615c0,0.254-0.024,0.504-0.079,0.746h-0.625c0.066-0.236,0.097-0.492,0.097-0.746&#xD;&#xA;&#x9;&#x9;&#x9;c0-1.679-1.365-3.043-3.044-3.043s-3.043,1.364-3.043,3.043c0,0.254,0.031,0.51,0.097,0.746h-0.624&#xD;&#xA;&#x9;&#x9;&#x9;c-0.055-0.242-0.079-0.492-0.079-0.746c0-2.014,1.637-3.649,3.65-3.649C70.85,130.966,72.487,132.602,72.487,134.615z"/>
    <linearGradient id="SVGID_22_" gradientUnits="userSpaceOnUse" x1="178.0645" y1="130.9658" x2="178.0645" y2="135.3613">
      <stop offset="0" style="stop-color:#FFFFFF;stop-opacity:0.05"/>
      <stop offset="1" style="stop-color:#000000;stop-opacity:0.1"/>
    </linearGradient>
    <path fill="url(#SVGID_22_)" d="M181.714,134.615c0,0.254-0.024,0.504-0.078,0.746h-0.625c0.067-0.236,0.097-0.492,0.097-0.746&#xD;&#xA;&#x9;&#x9;&#x9;c0-1.679-1.363-3.043-3.043-3.043s-3.044,1.364-3.044,3.043c0,0.254,0.03,0.51,0.097,0.746h-0.624&#xD;&#xA;&#x9;&#x9;&#x9;c-0.055-0.242-0.078-0.492-0.078-0.746c0-2.014,1.636-3.649,3.649-3.649C180.077,130.966,181.714,132.602,181.714,134.615z"/>
  </g>
  <g>
    <linearGradient id="SVGID_23_" gradientUnits="userSpaceOnUse" x1="68.8374" y1="131.5723" x2="68.8374" y2="135.3613">
      <stop offset="0" style="stop-color:#FFFFFF;stop-opacity:0.35"/>
      <stop offset="1" style="stop-color:#000000;stop-opacity:0.2"/>
    </linearGradient>
    <path fill="url(#SVGID_23_)" d="M71.881,134.615c0,0.254-0.031,0.51-0.097,0.746h-0.625c0.073-0.236,0.115-0.485,0.115-0.746&#xD;&#xA;&#x9;&#x9;&#x9;c0-1.346-1.091-2.438-2.438-2.438c-1.346,0-2.437,1.092-2.437,2.438c0,0.261,0.042,0.51,0.115,0.746H65.89&#xD;&#xA;&#x9;&#x9;&#x9;c-0.066-0.236-0.097-0.492-0.097-0.746c0-1.679,1.364-3.043,3.043-3.043S71.881,132.937,71.881,134.615z"/>
    <linearGradient id="SVGID_24_" gradientUnits="userSpaceOnUse" x1="68.8374" y1="130.3594" x2="68.8374" y2="135.3613">
      <stop offset="0" style="stop-color:#FFFFFF;stop-opacity:0.35"/>
      <stop offset="1" style="stop-color:#000000;stop-opacity:0.2"/>
    </linearGradient>
    <path fill="url(#SVGID_24_)" d="M73.093,134.615c0,0.254-0.024,0.504-0.066,0.746h-0.619c0.055-0.242,0.079-0.492,0.079-0.746&#xD;&#xA;&#x9;&#x9;&#x9;c0-2.014-1.637-3.649-3.65-3.649c-2.013,0-3.65,1.636-3.65,3.649c0,0.254,0.024,0.504,0.079,0.746h-0.619&#xD;&#xA;&#x9;&#x9;&#x9;c-0.042-0.242-0.066-0.492-0.066-0.746c0-2.352,1.904-4.256,4.256-4.256C71.189,130.359,73.093,132.264,73.093,134.615z"/>
    <linearGradient id="SVGID_25_" gradientUnits="userSpaceOnUse" x1="178.0645" y1="130.3594" x2="178.0645" y2="135.3613">
      <stop offset="0" style="stop-color:#FFFFFF;stop-opacity:0.35"/>
      <stop offset="1" style="stop-color:#000000;stop-opacity:0.2"/>
    </linearGradient>
    <path fill="url(#SVGID_25_)" d="M182.32,134.615c0,0.254-0.024,0.504-0.067,0.746h-0.617c0.054-0.242,0.078-0.492,0.078-0.746&#xD;&#xA;&#x9;&#x9;&#x9;c0-2.014-1.637-3.649-3.649-3.649c-2.014,0-3.649,1.636-3.649,3.649c0,0.254,0.023,0.504,0.078,0.746h-0.618&#xD;&#xA;&#x9;&#x9;&#x9;c-0.042-0.242-0.067-0.492-0.067-0.746c0-2.352,1.904-4.256,4.257-4.256C180.416,130.359,182.32,132.264,182.32,134.615z"/>
    <linearGradient id="SVGID_26_" gradientUnits="userSpaceOnUse" x1="178.0645" y1="131.5723" x2="178.0645" y2="135.3613">
      <stop offset="0" style="stop-color:#FFFFFF;stop-opacity:0.35"/>
      <stop offset="1" style="stop-color:#000000;stop-opacity:0.2"/>
    </linearGradient>
    <path fill="url(#SVGID_26_)" d="M181.107,134.615c0,0.254-0.029,0.51-0.097,0.746h-0.624c0.072-0.236,0.115-0.485,0.115-0.746&#xD;&#xA;&#x9;&#x9;&#x9;c0-1.346-1.092-2.438-2.438-2.438c-1.347,0-2.438,1.092-2.438,2.438c0,0.261,0.042,0.51,0.115,0.746h-0.625&#xD;&#xA;&#x9;&#x9;&#x9;c-0.066-0.236-0.097-0.492-0.097-0.746c0-1.679,1.364-3.043,3.044-3.043S181.107,132.937,181.107,134.615z"/>
  </g>
  <linearGradient id="SVGID_27_" gradientUnits="userSpaceOnUse" x1="94.1699" y1="135.3613" x2="94.1699" y2="143.1035">
    <stop offset="0.1222" style="stop-color:#FFFFFF;stop-opacity:0.35"/>
    <stop offset="0.2715" style="stop-color:#000000;stop-opacity:0.15"/>
    <stop offset="0.7858" style="stop-color:#000000;stop-opacity:0.2"/>
    <stop offset="0.8929" style="stop-color:#000000;stop-opacity:0.35"/>
  </linearGradient>
  <path fill="url(#SVGID_27_)" d="M184.127,135.361H4.213c-0.667,0-1.213,0.546-1.213,1.212v5.318c0,0.666,0.546,1.212,1.213,1.212&#xD;&#xA;&#x9;&#x9;h179.914c0.668,0,1.213-0.546,1.213-1.212v-5.318C185.34,135.907,184.795,135.361,184.127,135.361z M184.127,141.892H4.213v-5.318&#xD;&#xA;&#x9;&#x9;h179.914V141.892z"/>
  <linearGradient id="SVGID_28_" gradientUnits="userSpaceOnUse" x1="94.1699" y1="136.5732" x2="94.1699" y2="141.8916">
    <stop offset="0" style="stop-color:#FFFFFF;stop-opacity:0.05"/>
    <stop offset="1" style="stop-color:#000000;stop-opacity:0.1"/>
  </linearGradient>
  <rect x="4.213" y="136.573" fill="url(#SVGID_28_)" width="179.914" height="5.318"/>
  <g>
    <linearGradient id="SVGID_29_" gradientUnits="userSpaceOnUse" x1="68.8374" y1="132.1777" x2="68.8374" y2="135.3613">
      <stop offset="0" style="stop-color:#FFFFFF;stop-opacity:0.05"/>
      <stop offset="1" style="stop-color:#000000;stop-opacity:0.1"/>
    </linearGradient>
    <path fill="url(#SVGID_29_)" d="M71.274,134.615c0,0.261-0.042,0.51-0.115,0.746h-4.644c-0.073-0.236-0.115-0.485-0.115-0.746&#xD;&#xA;&#x9;&#x9;&#x9;c0-1.346,1.091-2.438,2.437-2.438C70.183,132.178,71.274,133.27,71.274,134.615z"/>
    <linearGradient id="SVGID_30_" gradientUnits="userSpaceOnUse" x1="178.0645" y1="132.1777" x2="178.0645" y2="135.3613">
      <stop offset="0" style="stop-color:#FFFFFF;stop-opacity:0.05"/>
      <stop offset="1" style="stop-color:#000000;stop-opacity:0.1"/>
    </linearGradient>
    <path fill="url(#SVGID_30_)" d="M180.502,134.615c0,0.261-0.043,0.51-0.115,0.746h-4.645c-0.073-0.236-0.115-0.485-0.115-0.746&#xD;&#xA;&#x9;&#x9;&#x9;c0-1.346,1.091-2.438,2.438-2.438C179.41,132.178,180.502,133.27,180.502,134.615z"/>
  </g>
  <path fill="#CCCCCC" d="M187.343,21.729c0,1.925-1.575,3.5-3.5,3.5H4.5c-1.925,0-3.5-1.575-3.5-3.5v-0.427&#xD;&#xA;&#x9;&#x9;c0-1.925,1.575-3.5,3.5-3.5h179.343c1.925,0,3.5,1.575,3.5,3.5V21.729z"/>
  <linearGradient id="SVGID_31_" gradientUnits="userSpaceOnUse" x1="94.1714" y1="17.8027" x2="94.1714" y2="25.2295">
    <stop offset="0" style="stop-color:#FFFFFF;stop-opacity:0.1"/>
    <stop offset="0.2081" style="stop-color:#FFFFFF;stop-opacity:0.3"/>
    <stop offset="0.7903" style="stop-color:#000000;stop-opacity:0.3"/>
    <stop offset="1" style="stop-color:#000000;stop-opacity:0.15"/>
  </linearGradient>
  <path fill="url(#SVGID_31_)" d="M187.343,21.729c0,1.925-1.575,3.5-3.5,3.5H4.5c-1.925,0-3.5-1.575-3.5-3.5v-0.427&#xD;&#xA;&#x9;&#x9;c0-1.925,1.575-3.5,3.5-3.5h179.343c1.925,0,3.5,1.575,3.5,3.5V21.729z"/>
  <linearGradient id="SVGID_32_" gradientUnits="userSpaceOnUse" x1="1" y1="21.5156" x2="187.3428" y2="21.5156">
    <stop offset="0.0121" style="stop-color:#000000;stop-opacity:0.1"/>
    <stop offset="0.0181" style="stop-color:#000000;stop-opacity:0.2"/>
    <stop offset="0.0241" style="stop-color:#000000;stop-opacity:0"/>
    <stop offset="0.9744" style="stop-color:#000000;stop-opacity:0"/>
    <stop offset="0.9804" style="stop-color:#000000;stop-opacity:0.2"/>
    <stop offset="0.9864" style="stop-color:#000000;stop-opacity:0.1"/>
  </linearGradient>
  <path fill="url(#SVGID_32_)" d="M187.343,21.729c0,1.925-1.575,3.5-3.5,3.5H4.5c-1.925,0-3.5-1.575-3.5-3.5v-0.427&#xD;&#xA;&#x9;&#x9;c0-1.925,1.575-3.5,3.5-3.5h179.343c1.925,0,3.5,1.575,3.5,3.5V21.729z"/>
  <path fill="#1A1A1A" d="M4.214,18.498v6.03c-1.46-0.229-2.57-1.49-2.57-3.01C1.645,19.988,2.754,18.729,4.214,18.498z"/>
  <path fill="#1A1A1A" d="M184.058,18.498v6.03c1.461-0.229,2.57-1.49,2.57-3.01C186.628,19.988,185.519,18.729,184.058,18.498z"/>
  <linearGradient id="SVGID_33_" gradientUnits="userSpaceOnUse" x1="94.1699" y1="1.0029" x2="94.1699" y2="17.8018">
    <stop offset="0.0724" style="stop-color:#FFFFFF;stop-opacity:0.35"/>
    <stop offset="0.175" style="stop-color:#000000;stop-opacity:0.15"/>
    <stop offset="0.8612" style="stop-color:#000000;stop-opacity:0.2"/>
    <stop offset="0.9638" style="stop-color:#000000;stop-opacity:0.35"/>
  </linearGradient>
  <path fill="url(#SVGID_33_)" d="M184.127,1.003H4.213C3.546,1.003,3,1.549,3,2.215V16.59c0,0.666,0.546,1.212,1.213,1.212h179.914&#xD;&#xA;&#x9;&#x9;c0.668,0,1.213-0.546,1.213-1.212V2.215C185.34,1.549,184.795,1.003,184.127,1.003z M184.127,16.59H4.213V2.215h179.914V16.59z"/>
  <linearGradient id="SVGID_34_" gradientUnits="userSpaceOnUse" x1="94.1699" y1="2.2148" x2="94.1699" y2="16.5898">
    <stop offset="0" style="stop-color:#FFFFFF;stop-opacity:0.1"/>
    <stop offset="1" style="stop-color:#000000;stop-opacity:0.05"/>
  </linearGradient>
  <rect x="4.213" y="2.215" fill="url(#SVGID_34_)" width="179.914" height="14.375"/>
</svg>