<svg version="1.2" baseProfile="tiny" id="EdgeSVG_wAgxo" x="0px" y="0px" width="188.343px" height="144.104px" viewBox="0 0 188.343 144.104" xmlns:xlink="http://www.w3.org/1999/xlink" xmlns="http://www.w3.org/2000/svg">
  <linearGradient id="SVGID_8_" gradientUnits="userSpaceOnUse" x1="0" y1="72.0518" x2="188.3428" y2="72.0518">
    <stop offset="0" style="stop-color:#000000;stop-opacity:0.5"/>
    <stop offset="1" style="stop-color:#000000;stop-opacity:0.5"/>
  </linearGradient>
  <path fill="url(#SVGID_8_)" d="M4.213,144.104c-1.22,0-2.213-0.992-2.213-2.212v-5.555l0.033-0.093&#xD;&#xA;&#x9;&#x9;c0.016-0.082,0.036-0.152,0.053-0.212c0.029-0.149,0.055-0.237,0.089-0.317c0.348-0.823,1.147-1.354,2.038-1.354h57.93&#xD;&#xA;&#x9;&#x9;l-0.026-0.525c-0.021-0.428,0.001-0.839,0.067-1.223l2.591-15.06c0.208-1.213,0.845-2.74,1.704-4.085&#xD;&#xA;&#x9;&#x9;c0.414-0.648,0.827-1.181,1.228-1.584l37.179-37.176L67.814,37.638c-0.822-0.823-1.642-2.092-2.249-3.48&#xD;&#xA;&#x9;&#x9;c-0.348-0.796-0.583-1.529-0.698-2.181l-1.014-5.747H4.5c-2.481,0-4.5-2.019-4.5-4.5v-0.427c0-1.439,0.7-2.805,1.873-3.651&#xD;&#xA;&#x9;&#x9;l0.274-0.198l-0.082-0.328C2.022,16.951,2,16.771,2,16.59V2.213C2,0.993,2.993,0,4.212,0H184.13c1.22,0,2.213,0.993,2.213,2.213&#xD;&#xA;&#x9;&#x9;V16.59c0,0.18-0.022,0.36-0.065,0.536l-0.081,0.328l0.273,0.197c1.173,0.847,1.873,2.212,1.873,3.651v0.427&#xD;&#xA;&#x9;&#x9;c0,2.481-2.019,4.5-4.5,4.5h-0.801l-1.015,5.743c-0.042,0.235-0.1,0.487-0.174,0.745c-0.272,0.963-0.748,2.035-1.339,3.02&#xD;&#xA;&#x9;&#x9;c-0.456,0.761-0.951,1.417-1.433,1.899l-28.221,28.218l15.46,33.168l12.86,12.86c0.152,0.152,0.307,0.327,0.458,0.51&#xD;&#xA;&#x9;&#x9;c1.182,1.423,2.201,3.545,2.479,5.16l2.591,15.063c0.064,0.371,0.082,0.787,0.055,1.271l-0.039,0.526l0.317,0.146&#xD;&#xA;&#x9;&#x9;c0.24,0.109,0.46,0.263,0.652,0.455c0.418,0.417,0.647,0.972,0.647,1.562v5.315c0,1.22-0.993,2.212-2.213,2.212H4.213z&#xD;&#xA;&#x9;&#x9; M90.266,126.451c-0.438,0.439-1.015,0.97-1.666,1.535l-0.078,0.066c-0.741,0.644-1.583,1.327-2.313,1.878&#xD;&#xA;&#x9;&#x9;c-0.247,0.188-0.486,0.362-0.704,0.516l-5.591,3.915h87.066l-5.591-3.915c-0.888-0.621-2.092-1.583-3.223-2.572&#xD;&#xA;&#x9;&#x9;c-0.61-0.533-1.128-1.012-1.539-1.423L123.447,93.27L90.266,126.451z M142.008,74.709l3.979,3.979l0.807-0.564l-2.606-5.594&#xD;&#xA;&#x9;&#x9;L142.008,74.709z M123.447,56.147l9.739-9.74l-9.433-20.178H93.531L123.447,56.147z M138.241,41.354l15.122-15.124h-22.191&#xD;&#xA;&#x9;&#x9;L138.241,41.354z"/>
</svg>