<svg version="1.2" baseProfile="tiny" id="EdgeSVG_wAgxo" x="0px" y="0px" width="188.343px" height="144.104px" viewBox="0 0 188.343 144.104" xmlns:xlink="http://www.w3.org/1999/xlink" xmlns="http://www.w3.org/2000/svg">
  <linearGradient id="SVGID_1_" gradientUnits="userSpaceOnUse" x1="0" y1="127.1309" x2="188.3428" y2="127.1309">
    <stop offset="0" style="stop-color:#000000;stop-opacity:0.5"/>
    <stop offset="1" style="stop-color:#000000;stop-opacity:0.5"/>
  </linearGradient>
  <path fill="url(#SVGID_1_)" d="M4.213,144.104c-1.22,0-2.213-0.992-2.213-2.212v-5.547l0.022-0.046c0,0,0.039-0.18,0.052-0.228&#xD;&#xA;&#x9;&#x9;l0.097-0.338l-0.286-0.206C0.705,134.679,0,133.318,0,131.889v-0.427c0-1.439,0.7-2.805,1.873-3.651l0.274-0.198l-0.082-0.328&#xD;&#xA;&#x9;&#x9;C2.022,127.11,2,126.931,2,126.749v-14.377c0-1.22,0.993-2.213,2.212-2.213H184.13c1.22,0,2.213,0.993,2.213,2.213v14.377&#xD;&#xA;&#x9;&#x9;c0,0.18-0.022,0.36-0.065,0.536l-0.081,0.328l0.273,0.197c1.173,0.847,1.873,2.212,1.873,3.651v0.427c0,1.424-0.7,2.78-1.872,3.629&#xD;&#xA;&#x9;&#x9;l-0.272,0.197l0.08,0.327c0.043,0.175,0.064,0.354,0.064,0.534v5.315c0,1.22-0.993,2.212-2.213,2.212H4.213z"/>
</svg>