<svg version="1.2" baseProfile="tiny" id="EdgeSVG_1hnhY" x="0px" y="0px" width="97.408px" height="239.623px" viewBox="0 0 97.408 239.623" xmlns:xlink="http://www.w3.org/1999/xlink" xmlns="http://www.w3.org/2000/svg">
  <linearGradient id="SVGID_1_" gradientUnits="userSpaceOnUse" x1="0" y1="119.8115" x2="97.4082" y2="119.8115">
    <stop offset="0" style="stop-color:#000000;stop-opacity:0.5"/>
    <stop offset="1" style="stop-color:#000000;stop-opacity:0.5"/>
  </linearGradient>
  <path fill="url(#SVGID_1_)" d="M97.408,27.284c0-0.646-0.412-1.189-0.97-1.35v-1.071c0-0.662-0.519-1.2-1.155-1.2h-4h-0.724&#xD;&#xA;&#x9;&#x9;c-0.049-4.638-0.564-12.266-5.948-14.958C79.696,6.249,72.883,5.6,69.966,5.6H53.338V5.179c0-0.21-0.053-0.407-0.144-0.579h1.16&#xD;&#xA;&#x9;&#x9;c0.992,0,1.8-0.808,1.8-1.8V2.2c0-0.882-0.637-1.617-1.476-1.771c-0.309-0.137-0.657-0.186-0.891-0.219&#xD;&#xA;&#x9;&#x9;C52.805,0.071,51.094,0,48.704,0c-2.39,0-4.1,0.071-5.084,0.21c-0.233,0.033-0.582,0.082-0.891,0.219&#xD;&#xA;&#x9;&#x9;c-0.838,0.154-1.475,0.889-1.475,1.771v0.6c0,0.993,0.807,1.8,1.8,1.8h1.16c-0.091,0.172-0.144,0.369-0.144,0.579V5.6H27.442&#xD;&#xA;&#x9;&#x9;c-2.917,0-9.732,0.649-14.646,3.105c-5.383,2.692-5.898,10.32-5.947,14.958H6.125h-4c-0.637,0-1.155,0.538-1.155,1.2v1.071&#xD;&#xA;&#x9;&#x9;C0.413,26.095,0,26.638,0,27.284v1.242c0,0.139,0.02,0.273,0.055,0.4C0.02,29.053,0,29.187,0,29.326v1.242&#xD;&#xA;&#x9;&#x9;c0,0.646,0.413,1.19,0.97,1.351v1.07c0,0.662,0.518,1.2,1.155,1.2h4h1.157h0.51c0.924,1.089,2.659,2.212,5.776,3.148&#xD;&#xA;&#x9;&#x9;c3.561,1.071,8.248,1.688,12.874,1.696v4.372c0,1.045,0.85,1.895,1.895,1.895h1.47c0.338,0.129,1.264,0.593,1.264,1.802v1h0.059&#xD;&#xA;&#x9;&#x9;v54.651c-2.12,1.783-3.471,4.452-3.471,7.433v44.986c0,5.024,3.835,9.169,8.732,9.662v8.195c-0.13-0.052-0.271-0.083-0.418-0.083&#xD;&#xA;&#x9;&#x9;h-5.157c-0.637,0-1.155,0.538-1.155,1.2v1.231c-0.568,0.303-0.957,0.901-0.957,1.589v4c0,0.288,0.07,0.559,0.19,0.8&#xD;&#xA;&#x9;&#x9;c-0.12,0.242-0.19,0.512-0.19,0.8v4c0,0.993,0.808,1.8,1.8,1.8h3.745c0.342,0.137,0.911,0.468,0.911,0.8v0.047l0.004,0.047&#xD;&#xA;&#x9;&#x9;c0.104,1.091,0.003,3.654-0.974,4.261h-0.003l-0.179,0.088l-1.85,1.044c-0.976,0.632-1.741,1.264-2.4,1.809&#xD;&#xA;&#x9;&#x9;c-1.28,1.058-2.054,1.698-3.373,1.703c-0.315-0.085-1.065-1.068-1.08-2.295v-3.904c0-0.993-0.808-1.8-1.8-1.8h-4&#xD;&#xA;&#x9;&#x9;c-0.993,0-1.8,0.807-1.8,1.8v36.4c0,0.993,0.807,1.8,1.8,1.8h4c0.993,0,1.8-0.808,1.8-1.8v-3.905&#xD;&#xA;&#x9;&#x9;c0.015-1.227,0.765-2.21,1.08-2.295c1.317,0.005,2.091,0.645,3.37,1.702c0.636,0.526,1.369,1.13,2.292,1.738l2.091,1.19&#xD;&#xA;&#x9;&#x9;c0.071,0.028,0.138,0.065,0.204,0.115c0.703,0.523,0.914,2.116,0.927,3.31l-0.068,1c0,0.326-0.545,0.654-0.916,0.8h-3.782&#xD;&#xA;&#x9;&#x9;c-0.993,0-1.8,0.808-1.8,1.8v4c0,0.993,0.808,1.8,1.8,1.8h36.399c0.993,0,1.8-0.807,1.8-1.8v-4c0-0.993-0.807-1.8-1.8-1.8H63.16&#xD;&#xA;&#x9;&#x9;c-0.342-0.137-0.913-0.468-0.913-0.8v-0.047l-0.004-0.046c-0.107-1.149-0.005-3.706,1.001-4.28c0.034-0.02,0.067-0.036,0.102-0.049&#xD;&#xA;&#x9;&#x9;l1.885-1.108c0.984-0.636,1.754-1.271,2.419-1.821c1.279-1.058,2.054-1.698,3.372-1.703c0.319,0.086,1.082,1.087,1.082,2.332h0.001&#xD;&#xA;&#x9;&#x9;v3.868c0,0.993,0.808,1.8,1.8,1.8h4c0.992,0,1.8-0.808,1.8-1.8v-36.4c0-0.993-0.808-1.8-1.8-1.8h-4c-0.993,0-1.8,0.807-1.8,1.8&#xD;&#xA;&#x9;&#x9;v3.868h-0.001c0,1.245-0.763,2.246-1.082,2.332c-1.318-0.005-2.092-0.645-3.372-1.703c-0.674-0.557-1.447-1.195-2.437-1.833&#xD;&#xA;&#x9;&#x9;l-1.504-0.866c-0.224-0.114-0.458-0.227-0.701-0.338c-0.657-0.566-0.858-2.1-0.871-3.261l0.068-1c0-0.325,0.544-0.653,0.915-0.8&#xD;&#xA;&#x9;&#x9;h3.784c0.993,0,1.8-0.808,1.8-1.8v-4c0-0.288-0.069-0.559-0.189-0.8c0.12-0.241,0.189-0.512,0.189-0.8v-4&#xD;&#xA;&#x9;&#x9;c0-0.499-0.204-0.951-0.533-1.277v-1.544c0-0.662-0.518-1.2-1.155-1.2h-5.158c-0.31,0-0.591,0.128-0.798,0.335v-8.452&#xD;&#xA;&#x9;&#x9;c4.876-0.512,8.69-4.647,8.69-9.657v-44.986c0-2.951-1.325-5.597-3.409-7.379V47.102c0-1.214,0.932-1.677,1.259-1.802h1.472&#xD;&#xA;&#x9;&#x9;c1.045,0,1.895-0.85,1.895-1.895v-4.372c4.626-0.009,9.313-0.625,12.874-1.696c3.117-0.937,4.852-2.06,5.775-3.148h0.511h1.157h4&#xD;&#xA;&#x9;&#x9;c0.637,0,1.155-0.538,1.155-1.2v-1.071c0.558-0.16,0.97-0.704,0.97-1.35v-1.242c0-0.139-0.02-0.273-0.055-0.4&#xD;&#xA;&#x9;&#x9;c0.035-0.127,0.055-0.261,0.055-0.4V27.284z M35.467,155.171v-44.986c0-0.966,0.723-1.764,1.656-1.886h3.313v1.842&#xD;&#xA;&#x9;&#x9;c0,0.772,0.588,1.4,1.31,1.4h0.485l0.018,0.922V122.6h3.005v1.167h-3.357c-0.993,0-1.8,0.808-1.8,1.8v13c0,0.993,0.808,1.8,1.8,1.8&#xD;&#xA;&#x9;&#x9;h3.357v9.833h-4.58v2.711h-0.025v0.903c-0.013,0.007-0.027,0.013-0.041,0.02h-0.871c-0.772,0-1.4,0.628-1.4,1.4v1.842H37.37&#xD;&#xA;&#x9;&#x9;C36.321,157.075,35.467,156.221,35.467,155.171z M61.942,155.171c0,1.05-0.854,1.904-1.904,1.904h-0.967v-1.842&#xD;&#xA;&#x9;&#x9;c0-0.772-0.628-1.4-1.4-1.4h-0.869c-0.013-0.006-0.027-0.012-0.042-0.02V150.2h-4.606v-9.833h3.357c0.993,0,1.8-0.808,1.8-1.8v-13&#xD;&#xA;&#x9;&#x9;c0-0.992-0.807-1.8-1.8-1.8h-3.357V122.6h3.025l0-11.058h0.482c0.723,0,1.311-0.628,1.311-1.4V108.3h3.313&#xD;&#xA;&#x9;&#x9;c0.933,0.122,1.656,0.92,1.656,1.886V155.171z"/>
</svg>